<?xml version="1.0" standalone="no"?>
<!DOCTYPE svg PUBLIC "-//W3C//DTD SVG 20010904//EN"
 "http://www.w3.org/TR/2001/REC-SVG-20010904/DTD/svg10.dtd">
<svg version="1.0" xmlns="http://www.w3.org/2000/svg"
 width="512.000000pt" height="512.000000pt" viewBox="0 0 512.000000 512.000000"
 preserveAspectRatio="xMidYMid meet">
<metadata>
Created by potrace 1.16, written by Peter Selinger 2001-2019
</metadata>
<g transform="translate(0.000000,512.000000) scale(0.100000,-0.100000)"
fill="#000000" stroke="none">
<path d="M2426 4889 c-489 -52 -896 -414 -1021 -909 -85 -335 -29 -687 156
-987 65 -105 234 -280 332 -345 l68 -45 -118 -74 c-641 -398 -898 -635 -1062
-980 -81 -170 -132 -350 -181 -635 -31 -187 -71 -530 -71 -617 -1 -73 1 -79
32 -115 17 -20 38 -40 45 -45 12 -7 2240 6 3243 19 l494 6 40 37 40 37 -17
255 c-19 291 -37 445 -71 611 -120 588 -493 1057 -1083 1365 -59 31 -126 67
-150 80 l-42 24 92 61 c170 111 331 294 427 486 136 271 162 640 66 937 -129
397 -452 709 -835 804 -76 19 -251 43 -290 39 -8 0 -50 -4 -94 -9z m302 -205
c287 -59 542 -262 677 -539 42 -87 93 -240 83 -250 -5 -5 -246 24 -402 50
-444 71 -679 169 -838 350 -43 49 -125 164 -163 228 -32 56 -35 52 65 98 59
28 168 62 230 72 66 11 276 6 348 -9z m-698 -416 c98 -145 262 -280 425 -351
187 -82 488 -151 873 -198 l182 -23 0 -80 c0 -156 -56 -347 -144 -496 -129
-218 -342 -384 -581 -452 -69 -20 -103 -23 -250 -23 -147 0 -181 3 -250 23
-371 106 -651 429 -715 824 -21 128 -13 164 72 338 42 85 98 187 126 225 59
84 211 265 220 265 4 0 23 -24 42 -52z m405 -1817 c103 -10 261 -1 336 19 38
11 45 8 257 -99 419 -213 654 -397 845 -663 222 -312 308 -622 342 -1239 l7
-117 -514 -6 c-645 -9 -2982 -24 -2986 -21 -6 5 17 212 44 410 120 863 287
1088 1253 1682 l144 89 86 -23 c47 -13 131 -27 186 -32z"/>
</g>
</svg>
