<?xml version="1.0" standalone="no"?>
<!DOCTYPE svg PUBLIC "-//W3C//DTD SVG 20010904//EN"
 "http://www.w3.org/TR/2001/REC-SVG-20010904/DTD/svg10.dtd">
<svg version="1.0" xmlns="http://www.w3.org/2000/svg"
 width="512.000000pt" height="512.000000pt" viewBox="0 0 512.000000 512.000000"
 preserveAspectRatio="xMidYMid meet">
<metadata>
Created by potrace 1.16, written by Peter Selinger 2001-2019
</metadata>
<g transform="translate(0.000000,512.000000) scale(0.100000,-0.100000)"
fill="#000000" stroke="none">
<path d="M232 4979 c-45 -13 -109 -80 -122 -127 -7 -28 -9 -738 -8 -2328 l3
-2289 24 -38 c13 -21 42 -50 64 -65 l41 -27 2231 0 2231 0 41 27 c22 15 51 44
64 65 l24 38 0 2311 0 2310 -27 41 c-15 22 -44 51 -65 64 l-38 24 -2215 2
c-1379 1 -2227 -2 -2248 -8z m4398 -2434 l0 -2245 -2165 0 -2165 0 0 844 0
845 58 54 c60 57 1258 1173 1303 1214 l25 23 352 -305 c238 -206 359 -305 374
-305 16 0 100 77 289 263 146 144 441 434 655 644 l390 382 23 -452 c20 -410
32 -571 48 -634 3 -16 17 -26 44 -33 74 -20 113 6 128 86 11 58 -42 1142 -59
1214 -8 34 -25 60 -67 102 -31 32 -68 60 -82 62 -91 19 -1103 126 -1138 121
-108 -16 -127 -158 -24 -184 20 -5 245 -33 501 -61 256 -28 473 -54 483 -58
14 -6 -103 -126 -587 -600 -333 -326 -608 -593 -611 -593 -9 -1 -620 529 -664
575 -19 20 -43 36 -54 36 -10 0 -298 -261 -685 -622 -367 -343 -675 -629 -685
-637 -16 -13 -17 54 -17 1248 l0 1261 2165 0 2165 0 0 -2245z"/>
</g>
</svg>
