<?xml version="1.0" standalone="no"?>
<!DOCTYPE svg PUBLIC "-//W3C//DTD SVG 20010904//EN"
 "http://www.w3.org/TR/2001/REC-SVG-20010904/DTD/svg10.dtd">
<svg version="1.0" xmlns="http://www.w3.org/2000/svg"
 width="512.000000pt" height="512.000000pt" viewBox="0 0 512.000000 512.000000"
 preserveAspectRatio="xMidYMid meet">
<metadata>
Created by potrace 1.16, written by Peter Selinger 2001-2019
</metadata>
<g transform="translate(0.000000,512.000000) scale(0.100000,-0.100000)"
fill="#000000" stroke="none">
<path d="M1115 4766 c-37 -17 -80 -62 -94 -99 -15 -40 -15 -3854 0 -3894 14
-38 57 -83 96 -99 27 -12 182 -14 878 -14 l845 0 0 -259 0 -260 29 -20 c28
-20 41 -21 380 -21 l350 0 16 30 c12 24 15 75 15 280 l0 250 280 0 c305 0 322
2 372 56 15 16 32 42 37 57 8 20 11 535 11 1670 l0 1643 -432 347 -433 347
-1160 0 c-947 -1 -1166 -3 -1190 -14z m2217 -516 c3 -325 5 -382 18 -390 9 -6
183 -10 423 -10 l407 0 -2 -1517 -3 -1518 -272 -3 -273 -2 0 102 0 103 52 30
c29 17 82 59 118 95 318 318 221 828 -195 1026 -111 53 -184 68 -320 68 -136
0 -209 -15 -320 -68 -249 -118 -398 -358 -382 -616 10 -161 70 -291 190 -412
l67 -69 0 -130 0 -129 -837 2 -838 3 -3 1895 c-1 1042 0 1901 3 1908 3 9 230
12 1084 12 l1080 0 3 -380z m499 44 c189 -152 346 -280 347 -285 2 -5 -147 -9
-347 -9 l-351 0 0 285 c0 157 2 285 4 285 2 0 159 -124 347 -276z m-416 -2189
c106 -22 226 -86 299 -159 282 -283 164 -729 -229 -862 -366 -124 -760 113
-782 471 -22 353 335 629 712 550z m-346 -1142 c118 -38 293 -41 419 -7 21 6
22 4 22 -70 l0 -76 -275 0 -275 0 0 96 c0 88 2 95 18 89 9 -4 50 -18 91 -32z
m441 -523 l0 -220 -275 0 -275 0 0 220 0 220 275 0 275 0 0 -220z"/>
<path d="M1830 3295 l0 -75 845 0 845 0 0 75 0 75 -845 0 -845 0 0 -75z"/>
<path d="M1830 2655 l0 -75 565 0 565 0 0 75 0 75 -565 0 -565 0 0 -75z"/>
</g>
</svg>
